HIERARCHY
ROOT Hips
{
    OFFSET 0.000000 0.000000 0.000000
    CHANNELS 6 Xposition Yposition Zposition Zrotation Yrotation Xrotation
    JOINT Chest
    {
        OFFSET 0.000000 1.634758 -0.000000
        CHANNELS 3 Zrotation Yrotation Xrotation
        JOINT Chest2
        {
            OFFSET 0.000000 2.197341 0.000000
            CHANNELS 3 Zrotation Yrotation Xrotation
            JOINT Neck
            {
                OFFSET 0.000000 0.961544 0.000000
                CHANNELS 3 Zrotation Yrotation Xrotation
                JOINT Head
                {
                    OFFSET 0.000000 0.632542 -0.032565
                    CHANNELS 3 Zrotation Yrotation Xrotation
                    End Site
                    {
                        OFFSET -0.000001 0.439502 2.922845
                    }
                }
            }
            JOINT LeftCollar
            {
                OFFSET 0.167536 0.778237 -0.168280
                CHANNELS 3 Zrotation Yrotation Xrotation
                JOINT LeftShoulder
                {
                    OFFSET 0.831514 -0.002900 0.006458
                    CHANNELS 3 Zrotation Yrotation Xrotation
                    JOINT LeftElbow
                    {
                        OFFSET 2.272872 -0.026639 0.059314
                        CHANNELS 3 Zrotation Yrotation Xrotation
                        JOINT LeftWrist
                        {
                            OFFSET 2.081982 -0.024402 0.054333
                            CHANNELS 3 Zrotation Yrotation Xrotation
                            JOINT LeftHandThumb1
                            {
                                OFFSET 0.218903 -0.128645 0.283837
                                CHANNELS 3 Zrotation Yrotation Xrotation
                                JOINT LeftHandThumb2
                                {
                                    OFFSET 0.137157 -0.025101 0.077902
                                    CHANNELS 3 Zrotation Yrotation Xrotation
                                    JOINT LeftHandThumb3
                                    {
                                        OFFSET 0.174382 -0.013597 -0.054271
                                        CHANNELS 3 Zrotation Yrotation Xrotation
                                        End Site
                                        {
                                            OFFSET 0.265225 -0.014064 -0.035976
                                        }
                                    }
                                }
                            }
                            JOINT LeftHandFore1
                            {
                                OFFSET 0.767340 -0.016076 0.196678
                                CHANNELS 3 Zrotation Yrotation Xrotation
                                JOINT LeftHandFore2
                                {
                                    OFFSET 0.209402 -0.053339 0.017355
                                    CHANNELS 3 Zrotation Yrotation Xrotation
                                    JOINT LeftHandFore3
                                    {
                                        OFFSET 0.112817 -0.062483 0.011445
                                        CHANNELS 3 Zrotation Yrotation Xrotation
                                        End Site
                                        {
                                            OFFSET 0.141706 -0.130704 0.014233
                                        }
                                    }
                                }
                            }
                            JOINT LeftHandMiddle1
                            {
                                OFFSET 0.709887 -0.008320 0.018526
                                CHANNELS 3 Zrotation Yrotation Xrotation
                                JOINT LeftHandMiddle2
                                {
                                    OFFSET 0.234000 -0.070929 0.016640
                                    CHANNELS 3 Zrotation Yrotation Xrotation
                                    JOINT LeftHandMiddle3
                                    {
                                        OFFSET 0.117695 -0.086117 0.010730
                                        CHANNELS 3 Zrotation Yrotation Xrotation
                                        End Site
                                        {
                                            OFFSET 0.132879 -0.194101 0.017265
                                        }
                                    }
                                }
                            }
                            JOINT LeftHandRing1
                            {
                                OFFSET 0.743817 -0.005823 -0.153668
                                CHANNELS 3 Zrotation Yrotation Xrotation
                                JOINT LeftHandRing2
                                {
                                    OFFSET 0.336037 -0.108665 0.002139
                                    CHANNELS 3 Zrotation Yrotation Xrotation
                                    JOINT LeftHandRing3
                                    {
                                        OFFSET 0.089045 -0.103016 0.008018
                                        CHANNELS 3 Zrotation Yrotation Xrotation
                                        End Site
                                        {
                                            OFFSET 0.049840 -0.109042 0.006750
                                        }
                                    }
                                }
                            }
                            JOINT LeftHandLittle1
                            {
                                OFFSET 0.689408 -0.053302 -0.308304
                                CHANNELS 3 Zrotation Yrotation Xrotation
                                JOINT LeftHandLittle2
                                {
                                    OFFSET 0.193649 -0.023348 -0.003025
                                    CHANNELS 3 Zrotation Yrotation Xrotation
                                    JOINT LeftHandLittle3
                                    {
                                        OFFSET 0.097052 -0.070999 0.006017
                                        CHANNELS 3 Zrotation Yrotation Xrotation
                                        End Site
                                        {
                                            OFFSET 0.065733 -0.174840 0.037399
                                        }
                                    }
                                }
                            }
                        }
                    }
                }
            }
            JOINT RightCollar
            {
                OFFSET -0.167536 0.778237 -0.168280
                CHANNELS 3 Zrotation Yrotation Xrotation
                JOINT RightShoulder
                {
                    OFFSET -0.831514 -0.002900 0.006457
                    CHANNELS 3 Zrotation Yrotation Xrotation
                    JOINT RightElbow
                    {
                        OFFSET -2.272872 -0.026639 0.059313
                        CHANNELS 3 Zrotation Yrotation Xrotation
                        JOINT RightWrist
                        {
                            OFFSET -2.081982 -0.024402 0.054331
                            CHANNELS 3 Zrotation Yrotation Xrotation
                            JOINT RightHandThumb1
                            {
                                OFFSET -0.218911 -0.128571 0.283837
                                CHANNELS 3 Zrotation Yrotation Xrotation
                                JOINT RightHandThumb2
                                {
                                    OFFSET -0.137157 -0.025101 0.077902
                                    CHANNELS 3 Zrotation Yrotation Xrotation
                                    JOINT RightHandThumb3
                                    {
                                        OFFSET -0.097615 -0.150407 0.037262
                                        CHANNELS 3 Zrotation Yrotation Xrotation
                                        End Site
                                        {
                                            OFFSET -0.164067 -0.194342 0.084556
                                        }
                                    }
                                }
                            }
                            JOINT RightHandFore1
                            {
                                OFFSET -0.767344 -0.015991 0.196679
                                CHANNELS 3 Zrotation Yrotation Xrotation
                                JOINT RightHandFore2
                                {
                                    OFFSET -0.209417 -0.053291 0.017358
                                    CHANNELS 3 Zrotation Yrotation Xrotation
                                    JOINT RightHandFore3
                                    {
                                        OFFSET -0.113045 -0.062512 0.008663
                                        CHANNELS 3 Zrotation Yrotation Xrotation
                                        End Site
                                        {
                                            OFFSET -0.141802 -0.130713 0.013155
                                        }
                                    }
                                }
                            }
                            JOINT RightHandMiddle1
                            {
                                OFFSET -0.709887 -0.008302 0.018525
                                CHANNELS 3 Zrotation Yrotation Xrotation
                                JOINT RightHandMiddle2
                                {
                                    OFFSET -0.233989 -0.070949 0.016648
                                    CHANNELS 3 Zrotation Yrotation Xrotation
                                    JOINT RightHandMiddle3
                                    {
                                        OFFSET -0.117942 -0.086166 0.007028
                                        CHANNELS 3 Zrotation Yrotation Xrotation
                                        End Site
                                        {
                                            OFFSET -0.133736 -0.194223 0.004738
                                        }
                                    }
                                }
                            }
                            JOINT RightHandRing1
                            {
                                OFFSET -0.743819 -0.005785 -0.153669
                                CHANNELS 3 Zrotation Yrotation Xrotation
                                JOINT RightHandRing2
                                {
                                    OFFSET -0.336043 -0.108645 0.002198
                                    CHANNELS 3 Zrotation Yrotation Xrotation
                                    JOINT RightHandRing3
                                    {
                                        OFFSET -0.089710 -0.101397 -0.016605
                                        CHANNELS 3 Zrotation Yrotation Xrotation
                                        End Site
                                        {
                                            OFFSET -0.050519 -0.107388 -0.018328
                                        }
                                    }
                                }
                            }
                            JOINT RightHandLittle1
                            {
                                OFFSET -0.689403 -0.053298 -0.308303
                                CHANNELS 3 Zrotation Yrotation Xrotation
                                JOINT RightHandLittle2
                                {
                                    OFFSET -0.193652 -0.023349 -0.003015
                                    CHANNELS 3 Zrotation Yrotation Xrotation
                                    JOINT RightHandLittle3
                                    {
                                        OFFSET -0.096823 -0.070506 -0.012238
                                        CHANNELS 3 Zrotation Yrotation Xrotation
                                        End Site
                                        {
                                            OFFSET -0.064635 -0.172529 -0.048420
                                        }
                                    }
                                }
                            }
                        }
                    }
                }
            }
        }
    }
    JOINT LeftHip
    {
        OFFSET 0.685143 0.673822 -0.044491
        CHANNELS 3 Zrotation Yrotation Xrotation
        JOINT LeftKnee
        {
            OFFSET 0.085364 -3.750208 0.017676
            CHANNELS 3 Zrotation Yrotation Xrotation
            JOINT LeftAnkle
            {
                OFFSET 0.094583 -4.155206 0.019585
                CHANNELS 3 Zrotation Yrotation Xrotation
                JOINT LeftToe
                {
                    OFFSET -0.000000 -0.395925 0.621478
                    CHANNELS 3 Zrotation Yrotation Xrotation
                    End Site
                    {
                        OFFSET -0.000000 -0.077878 0.321152
                    }
                }
            }
        }
    }
    JOINT RightHip
    {
        OFFSET -0.685143 0.673822 -0.044492
        CHANNELS 3 Zrotation Yrotation Xrotation
        JOINT RightKnee
        {
            OFFSET -0.085364 -3.750208 0.017677
            CHANNELS 3 Zrotation Yrotation Xrotation
            JOINT RightAnkle
            {
                OFFSET -0.094583 -4.155206 0.019585
                CHANNELS 3 Zrotation Yrotation Xrotation
                JOINT RightToe
                {
                    OFFSET -0.000000 -0.395925 0.621478
                    CHANNELS 3 Zrotation Yrotation Xrotation
                    End Site
                    {
                        OFFSET -0.000000 -0.077878 0.321152
                    }
                }
            }
        }
    }
}
MOTION
Frames: 5
Frame Time: 0.033333
-0.003404 8.272867 -0.472338 180.000000 -0.000011 180.000000 -1.220582 -0.103981 -1.958955 -0.001029 0.016142 -3.645281 3.473835 -0.316111 15.155527 0.032200 -0.625199 31.393606 -14.195331 -2.317798 -0.004056 -58.413185 2.753686 3.536571 0.053187 -22.382318 -0.276204 6.457164 -4.915285 6.067144 -0.000002 0.000005 -0.000003 -0.000002 -0.000000 0.000002 0.000001 0.000003 0.000000 -0.000004 -0.000002 0.000004 -0.000002 0.000002 -0.000003 0.000002 -0.000000 0.000001 0.000001 0.000005 0.000000 0.000001 0.000003 -0.000003 0.000002 -0.000000 0.000001 0.000001 -0.000000 -0.000001 0.000001 0.000003 0.000003 -0.000001 -0.000000 -0.000003 -0.000000 0.000005 0.000000 -0.000008 -0.000000 0.000000 0.000000 -0.000002 0.000001 14.673273 2.613860 -0.013288 60.748695 3.432287 4.086303 -0.012671 11.355692 -0.134771 -4.633683 3.503599 9.215099 -0.000004 0.000003 0.000001 -0.000004 0.000003 -0.000001 0.000005 0.000002 -0.000003 -0.000003 -0.000000 0.000000 -0.000001 0.000002 -0.000003 -0.000005 -0.000003 0.000000 -0.000001 0.000002 0.000000 -0.000002 -0.000000 -0.000001 0.000002 -0.000000 -0.000001 -0.000000 0.000002 0.000001 -0.000001 -0.000000 0.000002 -0.000002 0.000002 -0.000002 -0.000002 -0.000002 -0.000001 0.000006 -0.000003 -0.000001 -0.000004 0.000002 -0.000003 -0.547916 6.087532 -3.372034 0.031629 0.285453 12.642987 -3.174396 -1.815578 -14.015573 -0.053923 -0.371514 -5.372722 0.315256 -11.402276 -2.996316 -0.027125 -0.264633 11.707172 9.730013 4.099328 -12.442729 0.149769 1.120536 -6.017211
-0.003404 8.272867 -0.472338 180.000000 -0.000011 180.000000 -1.219308 -0.126179 -1.958287 -0.004428 0.019819 -3.647476 3.473586 -0.312288 15.156479 0.031373 -0.609134 31.395239 -14.193917 -2.324451 -0.003112 -58.407890 2.752403 3.541389 0.053292 -22.401014 -0.276460 6.846790 -4.893050 6.002772 -0.000014 0.000002 0.000003 -0.609313 0.716813 -1.442178 -0.098775 1.048674 0.045579 -2.527327 0.382424 0.550001 -7.729633 -0.341914 0.108700 -3.442849 -0.178914 0.106166 -3.395405 -0.323954 0.446895 -8.445102 -0.333339 0.454430 -1.159987 -0.048098 0.057333 -3.784781 -0.612244 0.082529 -6.979712 -0.314834 0.059405 -2.297518 -0.172398 0.078984 -4.803944 -1.021422 0.132821 -5.527418 -1.234000 0.435560 -1.960371 -0.364048 -0.048014 14.673759 2.622682 -0.014317 60.756363 3.536589 4.102782 -0.012372 11.222346 -0.133148 -4.948605 3.490372 9.071804 -0.000006 -0.000003 -0.000009 -0.351336 0.367829 1.640567 0.764264 -0.253510 0.678960 2.527255 -0.380936 0.550974 7.656734 -0.106141 1.104527 3.421347 -0.053737 0.431039 3.395262 0.325023 0.446175 8.427992 -0.251166 0.704010 1.157677 -0.026812 0.100803 3.784698 0.612005 0.081015 6.864954 -1.255038 0.273285 2.254744 -0.476968 0.042796 4.804165 1.020450 0.130425 5.444316 -1.523206 -0.580527 1.938915 -0.468191 -0.000890 -0.548038 6.085273 -3.371996 0.031629 0.285454 12.642987 -3.174457 -1.813057 -14.015739 -0.053920 -0.371498 -5.372778 0.315252 -11.402346 -2.996318 -0.027125 -0.264633 11.707174 9.731265 4.098862 -12.442360 0.149789 1.120753 -6.017673
-0.003404 8.272867 -0.472338 180.000000 -0.000011 180.000000 -1.216190 -0.179651 -1.956370 -0.014429 0.028810 -3.653804 3.472084 -0.302648 15.159117 0.029307 -0.569023 31.399500 -14.189847 -2.343413 -0.000791 -58.393761 2.743768 3.557022 0.053575 -22.453920 -0.277185 7.914827 -4.827561 5.823941 -0.000001 -0.000003 0.000005 -1.292054 1.465321 -2.991620 -0.203665 2.171603 0.092408 -5.229339 0.818402 1.119646 -16.007479 -0.688233 0.274917 -7.129824 -0.363065 0.231542 -7.033863 -0.640791 0.945804 -17.490990 -0.612103 0.989565 -2.402112 -0.098457 0.119971 -7.839123 -1.260229 0.215514 -14.454026 -0.641237 0.164897 -4.757945 -0.353323 0.171158 -9.953053 -2.098545 0.369443 -11.460524 -2.502079 1.031797 -4.059271 -0.755436 -0.085598 14.674923 2.647984 -0.016876 60.777229 3.823330 4.148416 -0.011540 10.856030 -0.128696 -5.811844 3.451729 8.672728 -0.000001 -0.000000 -0.000010 -0.720759 0.762787 3.396009 1.579269 -0.534924 1.402215 5.229361 -0.815306 1.121737 15.851582 -0.381780 2.260138 7.084284 -0.139683 0.888142 7.033778 0.643089 0.944365 17.448776 -0.631298 1.408252 2.397222 -0.057923 0.207913 7.839108 1.259870 0.212405 14.214764 -2.624665 0.397420 4.668946 -0.989150 0.067788 9.953493 2.096767 0.364402 11.297126 -3.085051 -1.360169 4.015234 -0.969171 -0.019421 -0.548397 6.078588 -3.371852 0.031628 0.285453 12.642930 -3.174640 -1.805588 -14.016214 -0.053911 -0.371447 -5.372956 0.315241 -11.402555 -2.996288 -0.027125 -0.264631 11.707112 9.734979 4.097471 -12.441233 0.149847 1.121397 -6.019068
-0.003404 8.272867 -0.472338 180.000000 -0.000011 180.000000 -1.212279 -0.244711 -1.953321 -0.030743 0.040045 -3.663900 3.468193 -0.289937 15.163133 0.026628 -0.516986 31.405411 -14.183454 -2.373177 0.002150 -58.373333 2.720181 3.585270 0.053985 -22.535378 -0.278300 9.509913 -4.719794 5.553500 -0.000009 -0.000002 0.000001 -2.035890 2.222590 -4.611282 -0.312068 3.341165 0.139035 -8.038840 1.300356 1.690413 -24.629051 -1.019477 0.499135 -10.969663 -0.545829 0.374393 -10.825757 -0.936373 1.485647 -26.913322 -0.809179 1.586143 -3.695575 -0.149603 0.186533 -12.063861 -1.923208 0.402387 -22.238453 -0.963498 0.318904 -7.320376 -0.537341 0.275299 -15.324248 -3.192807 0.717897 -17.659832 -3.749535 1.789492 -6.244905 -1.164166 -0.109463 14.676332 2.688023 -0.020168 60.808533 4.258537 4.217679 -0.010329 10.295982 -0.121912 -7.101078 3.388843 8.064696 -0.000002 -0.000000 -0.000012 -1.098235 1.175116 5.222634 2.424134 -0.838885 2.151052 8.038797 -1.295666 1.693725 24.377840 -0.840682 3.408937 10.897749 -0.260005 1.357286 10.825655 0.939982 1.483543 26.837572 -1.139305 2.068812 3.687922 -0.092948 0.318524 12.063911 1.922858 0.397604 21.876028 -4.055428 0.339128 7.183180 -1.523118 0.070847 15.324841 3.190447 0.710025 17.424782 -4.617845 -2.338840 6.177979 -1.489748 -0.058005 -0.548987 6.067610 -3.371723 0.031629 0.285454 12.643043 -3.174942 -1.793323 -14.017084 -0.053898 -0.371365 -5.373177 0.315224 -11.402900 -2.996292 -0.027125 -0.264632 11.707114 9.741095 4.095186 -12.439413 0.149944 1.122456 -6.021364
-0.003404 8.272867 -0.472338 180.000000 -0.000011 180.000000 -1.208628 -0.301671 -1.949254 -0.053078 0.050456 -3.677374 3.460776 -0.276899 15.168209 0.023959 -0.465149 31.412027 -14.175122 -2.412240 0.004946 -58.349152 2.673537 3.627803 0.054521 -22.638752 -0.279719 11.480605 -4.571063 5.215310 -0.000001 -0.000002 0.000010 -2.825309 2.967392 -6.263589 -0.421292 4.529152 0.184186 -10.888347 1.818001 2.245442 -33.389679 -1.317690 0.775134 -14.870980 -0.721277 0.531729 -14.680811 -1.199387 2.052880 -36.487103 -0.906649 2.216927 -5.009672 -0.200205 0.255520 -16.359758 -2.580744 0.641830 -30.147997 -1.266459 0.518622 -9.923929 -0.719311 0.389406 -20.794121 -4.266058 1.175886 -23.983967 -4.925387 2.694284 -8.465414 -1.580005 -0.117726 14.677500 2.741068 -0.023395 60.847794 4.811818 4.304951 -0.008866 9.574042 -0.113199 -8.693923 3.302962 7.294950 0.000003 -0.000012 -0.000003 -1.474438 1.595007 7.076893 3.278344 -1.158882 2.907176 10.888408 -1.811749 2.250057 33.029945 -1.475914 4.493366 14.770592 -0.413918 1.824601 14.680749 1.204382 2.050203 36.371208 -1.758606 2.646005 4.999034 -0.131259 0.429848 16.359842 2.580513 0.635358 29.676601 -5.487714 0.084141 9.737994 -2.065157 0.049958 20.794825 4.263375 1.165100 23.690832 -6.058762 -3.498072 8.375970 -2.016741 -0.117306 -0.549800 6.052477 -3.371552 0.031630 0.285459 12.643210 -3.175361 -1.776405 -14.018288 -0.053878 -0.371243 -5.373473 0.315199 -11.403373 -2.996298 -0.027125 -0.264631 11.707112 9.749558 4.092019 -12.436898 0.150075 1.123919 -6.024516
